<svg xmlns="http://www.w3.org/2000/svg" viewBox="0 0 128 128" role="img" aria-label="R Travel">
  <defs>
    <clipPath id="c"><rect width="128" height="128" rx="28"/></clipPath>
    <linearGradient id="sky" x1="0" y1="0" x2="0" y2="1">
      <stop offset="0" stop-color="#ffb400"/>
      <stop offset="0.55" stop-color="#ffd23f"/>
      <stop offset="1" stop-color="#ffeaa0"/>
    </linearGradient>
    <linearGradient id="sea" x1="0" y1="0" x2="0" y2="1">
      <stop offset="0" stop-color="#1ba7c9"/>
      <stop offset="1" stop-color="#0a5f8c"/>
    </linearGradient>
    <linearGradient id="sand" x1="0" y1="0" x2="0" y2="1">
      <stop offset="0" stop-color="#ffe2a8"/>
      <stop offset="1" stop-color="#f2c177"/>
    </linearGradient>
    <radialGradient id="sun" cx="0.5" cy="0.5" r="0.5">
      <stop offset="0" stop-color="#fffbe6"/>
      <stop offset="0.7" stop-color="#ffe9a3"/>
      <stop offset="1" stop-color="#ffe9a3" stop-opacity="0"/>
    </radialGradient>
  </defs>
  <g clip-path="url(#c)">
    <rect width="128" height="128" fill="url(#sky)"/>
    <circle cx="90" cy="74" r="26" fill="url(#sun)"/>
    <circle cx="90" cy="74" r="15" fill="#fff6cf"/>
    <rect y="76" width="128" height="30" fill="url(#sea)"/>
    <path d="M60 83h22M86 89h28M70 95h18M10 90h16" stroke="#bff0ff" stroke-width="1.6" stroke-linecap="round" opacity=".7"/>
    <path d="M0 104 Q40 94 76 100 T128 98 V128 H0Z" fill="url(#sand)"/>
    <!-- tall palm -->
    <g fill="#12402a">
      <path d="M104 118 C103 98 100 78 93 56" stroke="#3a2518" stroke-width="4.2" fill="none" stroke-linecap="round"/>
      <path d="M93 56 C84 46 70 46 60 54 C72 51 82 53 93 56Z"/>
      <path d="M93 56 C88 42 77 36 66 38 C78 42 86 48 93 56Z"/>
      <path d="M93 56 C96 43 106 36 118 38 C108 42 99 48 93 56Z"/>
      <path d="M93 56 C104 50 118 54 124 64 C114 58 104 57 93 56Z"/>
      <path d="M93 56 C98 64 100 72 98 80 C96 71 94 64 93 56Z"/>
      <path d="M93 56 C86 62 80 70 80 78 C84 70 88 63 93 56Z"/>
      <path d="M93 56 C82 55 72 60 66 68 C75 62 84 58 93 56Z"/>
      <path d="M93 56 C106 58 114 66 116 76 C109 68 101 61 93 56Z"/>
      <circle cx="93" cy="58" r="2.4" fill="#5a3a1c"/><circle cx="96" cy="57" r="2.2" fill="#5a3a1c"/>
    </g>
    <!-- small palm -->
    <g fill="#12402a" opacity=".9">
      <path d="M118 112 C118 100 116 90 113 80" stroke="#3a2518" stroke-width="2.6" fill="none" stroke-linecap="round"/>
      <path d="M113 80 C107 74 99 75 94 80 C101 78 107 79 113 80Z"/>
      <path d="M113 80 C115 72 121 69 128 70 C122 73 117 76 113 80Z"/>
      <path d="M113 80 C119 78 126 81 128 87 C122 83 118 82 113 80Z"/>
    </g>
    <!-- R (from R Shark) -->
    <g transform="translate(10,28) scale(1.06)"><path d="M 14 6 C 12 20, 13 38, 12 62" fill="none" stroke="#0b2a4a" stroke-width="8.5" stroke-linecap="round" stroke-linejoin="round" opacity="0.25" transform="translate(1.5,2)"/><path d="M 14 6 C 26 1, 58 4, 68 20 C 78 36, 66 52, 14 52" fill="none" stroke="#0b2a4a" stroke-width="8.5" stroke-linecap="round" stroke-linejoin="round" opacity="0.25" transform="translate(1.5,2)"/><path d="M 36 52 C 58 56, 80 60, 98 64" fill="none" stroke="#0b2a4a" stroke-width="7.5" stroke-linecap="round" stroke-linejoin="round" opacity="0.25" transform="translate(1.5,2)"/><path d="M 98 64 C 103 60, 104 54, 100 50" fill="none" stroke="#0b2a4a" stroke-width="5.5" stroke-linecap="round" stroke-linejoin="round" opacity="0.25" transform="translate(1.5,2)"/><path d="M 14 6 C 12 20, 13 38, 12 62" fill="none" stroke="#ffffff" stroke-width="12.0" stroke-linecap="round" stroke-linejoin="round" opacity="1" transform="translate(0,0)"/><path d="M 14 6 C 26 1, 58 4, 68 20 C 78 36, 66 52, 14 52" fill="none" stroke="#ffffff" stroke-width="12.0" stroke-linecap="round" stroke-linejoin="round" opacity="1" transform="translate(0,0)"/><path d="M 36 52 C 58 56, 80 60, 98 64" fill="none" stroke="#ffffff" stroke-width="11.0" stroke-linecap="round" stroke-linejoin="round" opacity="1" transform="translate(0,0)"/><path d="M 98 64 C 103 60, 104 54, 100 50" fill="none" stroke="#ffffff" stroke-width="9.0" stroke-linecap="round" stroke-linejoin="round" opacity="1" transform="translate(0,0)"/><path d="M 14 6 C 12 20, 13 38, 12 62" fill="none" stroke="#0b2a5c" stroke-width="8.5" stroke-linecap="round" stroke-linejoin="round" opacity="1" transform="translate(0,0)"/><path d="M 14 6 C 26 1, 58 4, 68 20 C 78 36, 66 52, 14 52" fill="none" stroke="#0b2a5c" stroke-width="8.5" stroke-linecap="round" stroke-linejoin="round" opacity="1" transform="translate(0,0)"/><path d="M 36 52 C 58 56, 80 60, 98 64" fill="none" stroke="#0b2a5c" stroke-width="7.5" stroke-linecap="round" stroke-linejoin="round" opacity="1" transform="translate(0,0)"/><path d="M 98 64 C 103 60, 104 54, 100 50" fill="none" stroke="#0b2a5c" stroke-width="5.5" stroke-linecap="round" stroke-linejoin="round" opacity="1" transform="translate(0,0)"/></g>
  </g>
</svg>
